<svg width="32" height="32" viewBox="0 0 32 32" fill="none" xmlns="http://www.w3.org/2000/svg">
<g clip-path="url(#clip0_2285_130382)">
<g clip-path="url(#clip1_2285_130382)">
<path d="M0 8C0 3.58172 3.58172 0 8 0H24C28.4183 0 32 3.58172 32 8V24C32 28.4183 28.4183 32 24 32H8C3.58172 32 0 28.4183 0 24V8Z" fill="url(#paint0_angular_2285_130382)"/>
<g filter="url(#filter0_d_2285_130382)">
<path fill-rule="evenodd" clip-rule="evenodd" d="M15.5451 3.63371C15.4891 3.67652 15.4549 3.73338 15.4549 3.79577V4.04413C15.4533 4.09704 15.4534 4.15055 15.4549 4.20438V8.27308C15.4549 8.37931 15.5539 8.46948 15.6913 8.50161C15.6996 8.62538 15.7078 8.74916 15.7158 8.87296C15.7319 9.1206 15.7437 9.36848 15.7526 9.61652V13.134C15.5573 13.1406 15.3588 13.1565 15.2133 13.2584C14.8975 13.4796 14.9468 14.305 14.9822 14.8969C14.9887 15.0064 14.9948 15.1081 14.998 15.1963C14.3955 15.3528 13.9665 15.7561 13.9665 16.2289V17.5707L13.9484 17.5707C13.4249 17.5708 12.9018 17.5709 12.3789 17.5583V12.5782C12.3789 12.1217 11.8459 11.7516 11.1882 11.7516H6.52468C5.98616 11.7516 5.53114 11.9998 5.384 12.3404C5.37732 12.3427 5.37065 12.3451 5.36399 12.3474C5.3639 12.3628 5.36382 12.3782 5.36377 12.3937C5.34428 12.453 5.33398 12.5148 5.33398 12.5782V25.0458C5.33398 25.0551 5.33421 25.0645 5.33465 25.0737C5.33068 25.244 5.34395 25.3992 5.38741 25.5208C5.66365 25.9946 10.5159 27.5891 11.4652 27.8683C11.5186 27.884 11.5966 27.9078 11.6922 27.9369C12.275 28.1146 13.5095 28.4911 13.7661 28.4386C13.7716 28.4375 13.7771 28.4365 13.7825 28.4355C13.8486 28.1811 13.9212 27.9276 13.9938 27.6741C14.0637 27.4299 14.1338 27.1852 14.1979 26.9402C14.2236 26.8418 14.2424 26.7429 14.2612 26.6441C14.3032 26.4229 14.345 26.2024 14.4648 25.9912C14.5789 25.7899 14.7529 25.6123 15.0106 25.4874C15.3492 25.3234 15.8401 25.2278 16.2506 25.2798C16.7053 25.3375 17.1344 25.5183 17.3936 25.7864C17.6957 26.0987 17.7751 26.4959 17.8508 26.8741C17.8712 26.9763 17.8914 27.0771 17.9156 27.1745C17.9449 27.2921 17.9791 27.4091 18.0132 27.5262C18.047 27.6419 18.0808 27.7577 18.1099 27.874C18.1195 27.9122 18.1278 27.9541 18.1365 27.9976C18.1649 28.1399 18.197 28.3006 18.2862 28.4121C18.6583 28.3941 19.0665 28.2579 19.4293 28.1369C19.5134 28.1088 19.5951 28.0815 19.6734 28.0567C21.6276 27.4376 23.3826 26.7324 25.1304 25.8664C25.2141 25.8249 25.3015 25.7834 25.3901 25.7414C25.6967 25.596 26.0182 25.4434 26.2538 25.2587C26.507 25.1072 26.6673 24.8828 26.6673 24.6325V12.5782C26.6673 12.1217 26.1342 11.7516 25.4766 11.7516H24.1988C23.6275 11.7317 23.0171 11.7329 22.4353 11.7516H20.4162C20.096 11.7516 19.8053 11.8393 19.5913 11.9821L19.5879 11.9774C19.5785 11.9841 19.5697 11.9926 19.5615 12.0026C19.3535 12.1515 19.2255 12.3544 19.2255 12.5782V17.5529C19.215 17.5535 19.2045 17.554 19.194 17.5546C19.1781 17.5555 19.162 17.5564 19.1458 17.5573C18.7706 17.578 18.3357 17.6021 18.134 17.5686V16.2289C18.134 15.7866 17.7586 15.4051 17.2168 15.2296C17.2664 14.7845 17.2706 13.8616 17.2056 13.594C17.1703 13.4488 17.085 13.2954 16.9008 13.2108C16.748 13.1405 16.547 13.1334 16.3728 13.1594L16.3479 13.1574V8.48957C16.7952 8.44123 17.199 8.24151 17.5025 8.01663C17.6444 7.91145 17.7748 7.79947 17.9052 7.68752C18.0832 7.53465 18.2612 7.38184 18.4682 7.24653C19.1165 6.82284 20.9351 6.09283 21.7892 5.92862C21.2858 5.84982 20.8082 5.74884 20.3705 5.55314C19.9395 5.36041 19.5686 5.12491 19.1927 4.88471C18.2817 4.30246 17.4539 3.82821 16.2291 3.61509C16.2061 3.61109 16.1806 3.60626 16.1533 3.60108C16.0601 3.58343 15.9461 3.56182 15.8403 3.55612C15.8278 3.55517 15.8151 3.55469 15.8022 3.55469L15.7966 3.55472C15.7259 3.55411 15.6609 3.56231 15.6111 3.58574C15.5834 3.59878 15.5619 3.61518 15.5451 3.63371Z" fill="white"/>
</g>
</g>
</g>
<defs>
<filter id="filter0_d_2285_130382" x="3.4451" y="1.6658" width="25.1118" height="28.6664" filterUnits="userSpaceOnUse" color-interpolation-filters="sRGB">
<feFlood flood-opacity="0" result="BackgroundImageFix"/>
<feColorMatrix in="SourceAlpha" type="matrix" values="0 0 0 0 0 0 0 0 0 0 0 0 0 0 0 0 0 0 127 0" result="hardAlpha"/>
<feOffset/>
<feGaussianBlur stdDeviation="0.944444"/>
<feComposite in2="hardAlpha" operator="out"/>
<feColorMatrix type="matrix" values="0 0 0 0 0 0 0 0 0 0.209587 0 0 0 0 0.62876 0 0 0 0.4 0"/>
<feBlend mode="normal" in2="BackgroundImageFix" result="effect1_dropShadow_2285_130382"/>
<feBlend mode="normal" in="SourceGraphic" in2="effect1_dropShadow_2285_130382" result="shape"/>
</filter>
<radialGradient id="paint0_angular_2285_130382" cx="0" cy="0" r="1" gradientUnits="userSpaceOnUse" gradientTransform="translate(18.6667 18.6667) rotate(50.1944) scale(20.8273)">
<stop offset="0.0249837" stop-color="#0193E8"/>
<stop offset="0.507978" stop-color="#17DED8"/>
<stop offset="0.733289" stop-color="#00D7FF"/>
</radialGradient>
<clipPath id="clip0_2285_130382">
<rect width="32" height="32" fill="white"/>
</clipPath>
<clipPath id="clip1_2285_130382">
<rect width="32" height="32" fill="white"/>
</clipPath>
</defs>
</svg>
